HIERARCHY
ROOT root     
{
	OFFSET 0.0000 0.0000 0.0000
	CHANNELS 6 Xposition Yposition Zposition Zrotation Yrotation Xrotation
	JOINT pelvis   
	{
		OFFSET 0.0000 0.0000 0.0000
		CHANNELS 3 Zrotation Yrotation Xrotation
		JOINT thorax   
		{
			OFFSET 0.0000 23.0750 -5.0000
			CHANNELS 3 Zrotation Yrotation Xrotation
			JOINT rclavicle
			{
				OFFSET 0.0000 28.0009 0.0000
				CHANNELS 3 Zrotation Yrotation Xrotation
				JOINT rhumerus 
				{
					OFFSET -18.5725 5.5939 0.0000
					CHANNELS 3 Zrotation Yrotation Xrotation
					JOINT rradius  
					{
						OFFSET -24.8459 0.0000 0.0000
						CHANNELS 3 Zrotation Yrotation Xrotation
						JOINT rhand    
						{
							OFFSET -24.5477 0.0000 0.0000
							CHANNELS 3 Zrotation Yrotation Xrotation
							End Site
							{
								OFFSET -8.1826 0.0000 0.0000
							}
						}
					}
				}
			}
			JOINT lclavicle
			{
				OFFSET 0.0000 28.0009 0.0000
				CHANNELS 3 Zrotation Yrotation Xrotation
				JOINT lhumerus 
				{
					OFFSET 18.5725 5.5939 0.0000
					CHANNELS 3 Zrotation Yrotation Xrotation
					JOINT lradius  
					{
						OFFSET 24.8459 0.0000 0.0000
						CHANNELS 3 Zrotation Yrotation Xrotation
						JOINT lhand    
						{
							OFFSET 24.5477 0.0000 0.0000
							CHANNELS 3 Zrotation Yrotation Xrotation
							End Site
							{
								OFFSET 8.1826 0.0000 0.0000
							}
						}
					}
				}
			}
			JOINT head     
			{
				OFFSET 0.0000 35.2030 0.0000
				CHANNELS 3 Zrotation Yrotation Xrotation
				End Site
				{
					OFFSET 0.0000 11.7343 0.0000
				}
			}
		}
		JOINT rfemur   
		{
			OFFSET -8.2817 0.0000 0.0000
			CHANNELS 3 Zrotation Yrotation Xrotation
			JOINT rtibia   
			{
				OFFSET 0.0000 -43.3627 0.0000
				CHANNELS 3 Zrotation Yrotation Xrotation
				JOINT rfoot    
				{
					OFFSET 0.0000 -38.2947 0.0000
					CHANNELS 3 Zrotation Yrotation Xrotation
					JOINT rtoes    
					{
						OFFSET 0.0000 0.0000 16.6054
						CHANNELS 3 Zrotation Yrotation Xrotation
						End Site
						{
							OFFSET 0.0000 0.0000 5.5351
						}
					}
				}
			}
		}
		JOINT lfemur   
		{
			OFFSET 8.2817 0.0000 0.0000
			CHANNELS 3 Zrotation Yrotation Xrotation
			JOINT ltibia   
			{
				OFFSET 0.0000 -43.3627 0.0000
				CHANNELS 3 Zrotation Yrotation Xrotation
				JOINT lfoot    
				{
					OFFSET 0.0000 -38.2947 0.0000
					CHANNELS 3 Zrotation Yrotation Xrotation
					JOINT ltoes    
					{
						OFFSET 0.0000 0.0000 16.6054
						CHANNELS 3 Zrotation Yrotation Xrotation
						End Site
						{
							OFFSET 0.0000 0.0000 5.5351
						}
					}
				}
			}
		}
	}
}
MOTION
Frames: 17
Frame Time: .0333333
74.966 71.568 16.581 79.4746 -87.1318 -19.0947 0 -0 0 -1.21141 -7.34427 10.5426 23.8606 -5.97167 9.40176e-06 61.2538 18.0584 -7.03071 -1.29988e-07 22.8834 -6.42258e-07 -12.0334 16.8006 -1.78346 -19.7188 4.7783 -1.05859e-05 -50.5938 -13.8487 0.460064 0 -31.4034 0 10.326 -7.56376 -0.684405 -0.285698 -0.232501 -49.3542 2.76468 -8.26318 -87.0711 -0 -0 71.8531 0.00017404 -15.6193 -24.5329 6.62104 1.93316e-06 -59.8809 -5.64806 2.64575 -88.4316 -0 -0 72.8644 6.04686e-05 16.8405 -23.8605 -6.98076 -2.64924e-05 -53.1469 
73.922 71.997 16.486 79.2744 -87.2009 -19.9596 0 -0 0 -1.23862 -7.23477 9.74232 23.2318 -5.92361 2.71751e-05 61.8246 19.1675 -4.74002 -0 24.6491 -0 -12.5744 16.7784 -1.8617 -19.3851 4.68843 -1.67072e-05 -50.2839 -15.426 1.92489 0 -33.1749 0 10.3094 -7.6214 -0.688504 -0.362895 -0.289699 -47.9196 2.73253 -8.29185 -84.5 -0 -0 70.4465 -0.000110247 -15.6282 -24.6368 6.6514 3.70337e-05 -59.8225 -5.47751 2.90994 -85.9428 -0 -0 71.5792 -0.000149567 17.0655 -23.8613 -7.07865 -5.48894e-05 -53.2431 
72.829 72.498 16.387 79.0048 -87.2607 -20.7635 0 -0 0 -1.27642 -7.14163 8.91491 22.5477 -5.88227 -1.73836e-06 62.4299 20.1808 -2.48713 -0 26.5234 -0 -13.0618 16.7326 -1.92909 -19.0006 4.60484 -2.70351e-05 -50.0517 -16.9906 3.23334 0 -34.9081 0 10.3161 -7.74786 -0.700408 -0.388393 -0.422602 -46.2952 2.7059 -8.36448 -81.8207 -0 -0 68.8575 3.18608e-05 -15.4877 -24.6075 6.58167 -4.88962e-06 -59.7901 -5.30382 3.1748 -83.3369 -0 -0 70.0924 0.000104557 17.1989 -23.7328 -7.10134 1.16333e-05 -53.3844 
71.687 73.079 16.287 78.675 -87.321 -21.5361 0 -0 0 -1.33727 -7.0639 8.09288 21.8223 -5.86063 1.36167e-05 63.052 21.1257 -0.282381 -1.68957e-07 28.4806 -6.65737e-07 -13.4889 16.669 -1.98507 -18.5597 4.53079 1.28263e-06 -49.9226 -18.5571 4.37952 2.35896e-07 -36.5755 -7.13793e-07 10.3992 -7.93764 -0.72349 -0.360905 -0.647597 -44.5069 2.67395 -8.49785 -79.0406 -0 -0 67.1049 0.000152528 -15.1684 -24.367 6.38178 4.16437e-05 -59.9269 -5.12793 3.43433 -80.6125 -0 -0 68.4145 0.000170815 17.2161 -23.4137 -7.01944 2.23614e-05 -53.6826 
70.491 73.744 16.188 78.371 -87.3378 -22.351 0 -0 0 -1.42641 -6.99916 7.3152 21.0655 -5.85119 8.14091e-06 63.6768 22.0069 1.83923 -0 30.5139 -0 -13.8424 16.5881 -2.02764 -18.0582 4.44111 9.76674e-06 -49.9205 -20.0899 5.33856 0 -38.1944 0 10.5984 -8.17237 -0.759297 -0.289397 -0.972096 -42.5832 2.63349 -8.705 -76.1711 -0 -0 65.2133 3.84827e-05 -14.6558 -23.8271 6.03082 2.69187e-05 -60.3904 -4.94747 3.68716 -77.7738 -0 -0 66.5636 -6.42437e-05 17.1001 -22.8362 -6.80852 5.92003e-05 -54.2633 
69.242 74.495 16.092 78.0083 -87.3428 -23.1549 0 -0 0 -1.54017 -6.9467 6.61909 20.2829 -5.83141 1.96477e-05 64.2841 22.8214 3.83196 -0 32.6231 -0 -14.1087 16.4904 -2.05459 -17.4959 4.2967 1.04295e-05 -50.0508 -21.5219 6.07582 0 -39.8122 0 10.9353 -8.42694 -0.808111 -0.191696 -1.39243 -40.5574 2.58863 -8.99735 -73.2203 -0 -0 63.2125 -3.96404e-05 -13.95 -22.901 5.52139 2.90054e-05 -61.3248 -4.75595 3.93465 -74.8242 -0 -0 64.5618 -5.49511e-05 16.85 -21.9292 -6.453 3.13901e-05 -55.2472 
67.939 75.332 15.999 77.6335 -87.35 -24.0113 0 -0 0 -1.68076 -6.89596 6.04317 19.4949 -5.81428 -3.12949e-05 64.846 23.6038 5.70282 -2.19648e-07 34.7758 -7.01413e-07 -14.3017 16.3788 -2.06872 -16.8776 4.10612 1.80926e-05 -50.3142 -22.8583 6.62025 0 -41.4458 0 11.4219 -8.67904 -0.86961 -0.0833929 -1.90015 -38.4666 2.54279 -9.3834 -70.2041 -0 -0 61.1397 -1.40153e-05 -13.0663 -21.5067 4.86359 4.11911e-05 -62.8615 -4.5513 4.18098 -71.7791 -0 -0 62.445 4.44541e-05 16.4819 -20.625 -5.94992 3.4036e-05 -56.7337 
66.584 76.252 15.909 77.242 -87.3324 -24.9037 0 -0 0 -1.84053 -6.84001 5.61624 18.7107 -5.79187 3.12389e-05 65.3374 24.3699 7.44082 -0 36.9607 -0 -14.432 16.2559 -2.07194 -16.2162 3.85955 -8.97508e-06 -50.6925 -24.071 6.9824 0 -43.1389 0 12.0457 -8.90603 -0.941544 0.0151249 -2.47444 -36.3457 2.5058 -9.86914 -67.1472 -0 -0 59.0344 1.693e-05 -12.0297 -19.5773 4.08431 8.97939e-06 -65.0714 -4.32745 4.43359 -68.656 -0 -0 60.2505 -0.00012567 16.0268 -18.8681 -5.30718 4.45543e-05 -58.7761 
65.181 77.251 15.821 76.7949 -87.3351 -25.8122 0 -0 0 -2.01064 -6.76976 5.35858 17.947 -5.7639 -1.07594e-05 65.7333 25.1355 9.04903 -0 39.1608 -0 -14.5192 16.1189 -2.06672 -15.5258 3.56392 -9.53375e-06 -51.1576 -25.1547 7.19227 0 -44.9276 0 12.7752 -9.09051 -1.01978 0.0865799 -3.08703 -34.2264 2.48731 -10.4584 -64.0804 -0 -0 56.9416 -1.53186e-05 -10.8693 -17.0671 3.22543 -4.58595e-06 -67.9688 -4.07988 4.70145 -65.4868 -0 -0 58.0255 -1.01682e-06 15.5204 -16.6145 -4.54015 1.38083e-05 -61.3746 
63.737 78.321 15.733 76.3771 -87.3351 -26.7948 0 -0 0 -2.1814 -6.67688 5.27641 17.2131 -5.73114 -1.41427e-05 66.0048 25.92 10.5373 -0 41.3627 -0 -14.5896 15.9671 -2.05711 -14.8271 3.23386 6.05367e-06 -51.6702 -26.1161 7.28618 0 -46.8405 0 13.5665 -9.22092 -1.09917 0.118993 -3.7048 -32.1378 2.49637 -11.1518 -61.0462 -0 -0 54.9033 -2.02022e-05 -9.61776 -13.9466 2.33882 1.96696e-05 -71.5107 -3.80482 4.99529 -62.3112 -0 -0 55.8159 -7.07141e-05 15.0028 -13.8386 -3.66768 3.27594e-05 -64.473 
62.262 79.454 15.642 75.9164 -87.3631 -27.7774 0 -0 0 -2.33903 -6.5563 5.36344 16.5146 -5.69014 7.28805e-06 66.1369 26.7293 11.9107 -0 43.5644 -0 -14.6623 15.7982 -2.04525 -14.1431 2.8844 4.64568e-06 -52.1856 -26.9633 7.29525 3.80159e-07 -48.9024 -8.36061e-07 14.3637 -9.29016 -1.17312 0.104173 -4.28988 -30.1088 2.5398 -11.9459 -58.0945 -0 -0 52.9648 -2.20958e-06 -8.30169 -10.2208 1.4831 -6.49356e-06 -75.4875 -3.499 5.32665 -59.1775 -0 -0 53.6724 -3.92854e-06 14.5051 -10.5334 -2.70768 4.14741e-05 -67.9337 
60.767 80.64 15.546 75.484 -87.4628 -28.8225 0 -0 0 -2.47295 -6.4043 5.60037 15.857 -5.64125 -1.00848e-06 66.11 27.5707 13.1748 -0 45.7643 -0 -14.7531 15.6119 -2.03353 -13.4933 2.54088 1.25584e-05 -52.6624 -27.7198 7.25476 0 -51.1254 0 15.1041 -9.29674 -1.23523 0.0427748 -4.80677 -28.1648 2.61935 -12.8289 -55.2845 -0 -0 51.163 5.20681e-06 -6.9442 -5.91788 0.719399 1.05848e-06 -79.6426 -3.16277 5.70666 -56.1473 -0 -0 51.6392 1.74006e-05 14.0462 -6.71719 -1.67619 1.04909e-05 -71.5503 
59.268 81.868 15.443 75.2178 -87.5909 -30.0058 0 -0 0 -2.57807 -6.21863 5.95449 15.2406 -5.58734 -1.41254e-05 65.9163 28.4443 14.33 -3.66635e-07 47.9767 -8.2393e-07 -14.869 15.4091 -2.02269 -12.8936 2.22976 1.62971e-05 -53.0634 -28.4202 7.19613 4.56921e-07 -53.5055 -9.06411e-07 15.7286 -9.24651 -1.27993 -0.0552394 -5.22569 -26.331 2.73395 -13.7857 -52.6796 -0 -0 49.528 -7.92558e-07 -5.56532 -1.09588 0.1068 3.51097e-07 -83.735 -2.80086 6.14439 -53.2865 -0 -0 49.7576 -2.15085e-06 13.635 -2.42983 -0.5892 -5.17438e-06 -75.0777 
57.778 83.125 15.33 75.2706 -87.7486 -31.4574 0 -0 0 -2.64715 -6.00771 6.40566 14.6571 -5.51755 -1.35604e-05 65.5547 29.3483 15.3607 -4.00378e-07 50.2192 -8.54347e-07 -15.0003 15.1957 -2.0122 -12.3604 1.97303 9.01961e-06 -53.3458 -29.0891 7.12399 0 -56.0495 0 16.1802 -9.13619 -1.3014 -0.178352 -5.51577 -24.6394 2.87622 -14.7863 -50.3314 -0 -0 48.0832 -2.74564e-06 -4.18278 4.13266 -0.302003 -3.54821e-06 -87.3045 -2.41815 6.6467 -50.6464 -0 -0 48.06 -2.79729e-06 13.2617 2.24834 0.529796 -1.29569e-06 -78.1379 
56.32 84.4 15.206 75.836 -87.9722 -33.3147 0 -0 0 -2.68558 -5.76243 6.85925 14.104 -5.4506 1.2396e-05 65.0288 30.2546 16.2484 -0 52.5144 -0 -15.1297 14.9803 -2.00062 -11.8725 1.78121 8.22606e-06 -53.5288 -29.7484 7.06297 0 -58.7138 0 16.4261 -9.00624 -1.30252 -0.29887 -5.67828 -23.0937 3.04817 -15.7961 -48.3299 -0 -0 46.8275 2.17008e-06 -2.80946 9.63629 -0.470697 -3.53171e-06 -90.1232 -2.02387 7.20077 -48.3254 -0 -0 46.5643 -6.7125e-06 12.9171 7.22928 1.65316 -1.16792e-05 -80.6158 
54.906 85.678 15.074 77.2829 -88.2529 -35.94 0 -0 0 -2.69154 -5.50698 7.32984 13.5602 -5.36523 -6.98857e-06 64.3558 31.1675 16.9597 -0 54.8902 -0 -15.2292 14.7734 -1.98582 -11.4455 1.67526 -1.61379e-06 -53.5696 -30.4243 6.9836 0 -61.5189 0 16.4333 -8.83728 -1.27859 -0.402518 -5.69007 -21.741 3.2355 -16.7697 -46.6843 -0 -0 45.7748 -1.86937e-06 -1.47159 15.1947 -0.3858 -1.16883e-06 -91.8126 -1.6279 7.8001 -46.3426 -0 -0 45.2844 6.74162e-06 12.5782 12.3455 2.73121 -5.15983e-05 -82.0288 
53.554 86.948 14.935 80.326 -88.5549 -39.9927 0 -0 0 -2.67612 -5.24567 7.76432 13.0134 -5.27046 -1.29001e-05 63.5556 32.0656 17.4629 -0 57.3772 -0 -15.2712 14.5906 -1.96644 -11.052 1.65915 -3.30366e-06 -53.4863 -31.1329 6.87735 5.27452e-07 -64.437 -8.36978e-07 16.2047 -8.64949 -1.23367 -0.461319 -5.56182 -20.6 3.43731 -17.6622 -45.4458 -0 -0 44.919 -1.48423e-06 -0.196206 20.5717 -0.0689002 6.57836e-07 -92.2941 -1.24467 8.41589 -44.749 -0 -0 44.2241 -9.81646e-06 12.2305 17.421 3.71313 -5.56227e-05 -82.292 
